# xmcd
# 
# Track frame offsets:
#     150
#     14633
#     29040
#     43518
#     64940
#     80740
#     100085
#     118240
#     134971
#     150769
#     170162
#     200258
# 
# Disc length: 2889
# 
# Revision: 2
# Processed by: cddbd v1.5.1PL0 Copyright (c) Steve Scherf et al.
# Submitted via: BonkEnc v1.0beta3
# 
DISCID=ad0b470c
DTITLE=Jessica Simpson - In This Skin
DYEAR=2003
DGENRE=Pop
TTITLE0=Sweetest Sin
TTITLE1=With You
TTITLE2=My Way Home
TTITLE3=I Have Loved You
TTITLE4=Forbidden Fruit
TTITLE5=Everyday See You
TTITLE6=Underneath
TTITLE7=You Don't Have To Let Go
TTITLE8=Loving You
TTITLE9=In This Skin
TTITLE10=Be
TTITLE11=Data Track
EXTD=YEAR: 2003 ID3G: 13
EXTT0=
EXTT1=
EXTT2=
EXTT3=
EXTT4=
EXTT5=
EXTT6=
EXTT7=
EXTT8=
EXTT9=
EXTT10=
EXTT11=
PLAYORDER=
